<svg xmlns="http://www.w3.org/2000/svg" viewBox="283.796 198.315 458.522 600.951">
  <path fill="#000000" d="M700.237122,564.154785 C671.206848,613.903320 639.242920,661.231689 603.437866,705.889343 C578.941345,736.442566 553.133240,765.876160 525.250000,793.428040 C517.290955,801.292542 510.325867,801.198792 502.342194,793.223694 C439.287903,730.237549 385.774902,659.848450 339.667084,583.700012 C325.326752,560.016663 312.168060,535.780579 301.700409,510.064423 C276.472229,448.085754 277.501404,386.777557 307.355957,326.877472 C338.092590,265.207642 387.331787,223.920212 453.871735,206.805176 C544.773010,183.424088 622.734009,208.769638 686.153259,277.471252 C717.460144,311.385864 734.257019,352.466858 740.415344,398.097748 C746.362366,442.162781 737.999268,483.881714 720.510376,524.180725 C714.604004,537.790466 707.643555,550.886047 700.237122,564.154785 M629.918152,614.422791 C656.562012,585.322998 678.499695,553.058289 694.713562,517.051758 C705.429443,493.254822 713.608704,468.590118 715.481445,442.383606 C718.045349,406.504150 712.319031,371.992218 696.363770,339.483643 C678.177979,302.430573 651.483826,273.163086 615.803650,252.316956 C574.153015,227.982635 529.247986,218.742630 481.700043,226.768433 C419.338348,237.294708 371.326324,270.303986 338.746826,324.433685 C308.620972,374.486786 301.829285,428.129852 319.958862,483.906250 C336.758209,535.590149 365.405151,580.396729 402.606873,619.880432 C433.306396,652.463074 468.121948,679.921997 505.703278,704.084290 C511.248535,707.649536 515.343506,707.821045 520.982788,704.288147 C561.029175,679.200317 597.488586,649.825989 629.918152,614.422791 z"/>
  <path fill="#000000" d="M537.852295,424.965393 C551.296021,400.199127 572.154785,385.679108 598.488281,378.228088 C615.172546,373.507294 632.221313,372.536591 649.424622,372.870972 C652.068542,372.922394 653.967712,373.454224 653.785095,376.790161 C652.274353,404.389709 643.208557,429.057739 623.654297,448.844543 C603.671692,469.064850 579.001099,477.003204 550.698120,473.264069 C546.776855,472.746033 545.617126,471.276733 547.429626,467.298523 C551.200378,459.022125 556.281372,451.650177 562.031372,444.710297 C575.411743,428.560944 591.468506,415.383514 608.980164,403.188538 C597.160645,404.781189 560.332458,428.360840 544.098022,453.865723 C528.499268,478.372009 523.788940,505.514221 523.850403,534.955688 C516.138916,532.326233 509.235199,530.190857 502.523529,527.564758 C500.184021,526.649353 500.855621,523.772461 500.843170,521.675537 C500.735291,503.540588 496.352661,486.346771 488.722168,470.058472 C478.552002,448.348907 461.383362,433.040955 441.602814,420.313751 C434.054718,415.457184 426.057465,411.563446 417.332458,409.027679 C439.112793,424.793121 460.078400,441.348053 474.442017,464.640686 C475.912384,467.025085 477.345306,469.493927 477.869995,472.875275 C471.721893,475.664520 465.046143,475.918396 458.552338,476.103882 C424.927399,477.064331 395.544617,458.039673 381.391815,426.542053 C375.324249,413.038361 371.657623,398.971558 371.105927,384.132141 C371.017151,381.744873 371.142822,379.861603 374.278290,379.674652 C404.126923,377.894775 433.039093,381.273468 458.641541,398.006317 C479.052979,411.346497 490.714386,430.795166 494.385406,455.054047 C495.539856,462.682953 500.134308,469.075928 503.948700,475.958740 C504.525940,467.425507 505.005127,458.884125 505.712891,450.361725 C506.235168,444.072571 507.070404,437.809723 507.734039,431.531769 C507.922272,429.750885 508.758362,428.849030 510.621765,428.840790 C512.440674,428.832733 513.444519,429.564270 513.551147,431.433044 C513.750183,434.923553 514.133118,438.411682 514.156433,441.902679 C514.247314,455.520569 515.899475,469.025085 516.575806,483.090363 C518.965210,481.899597 519.044922,479.907318 519.726318,478.387177 C524.953430,466.725677 530.308899,455.157379 531.627014,442.137573 C532.230042,436.180573 534.915405,430.647491 537.852295,424.965393 z"/>
  <path fill="#000000" d="M512.649658,366.016296 C512.648193,353.542206 512.648193,341.565002 512.648193,329.587769 C512.221924,329.571503 511.795654,329.555237 511.369354,329.538971 C509.674835,338.792999 508.137787,348.056030 507.093842,357.436188 C506.025574,367.034790 505.169769,376.618469 505.164642,386.274353 C505.159546,395.874390 505.163483,405.474426 505.163483,414.916138 C503.321899,415.772583 502.189789,414.814423 501.133270,414.129517 C480.018433,400.440125 468.896881,381.877747 471.412476,355.868286 C473.188141,337.509521 481.511353,322.264099 492.041687,307.934357 C497.449524,300.575348 503.725189,293.853180 509.625610,286.857483 C511.270599,284.907135 512.751282,283.594666 515.229675,286.241852 C531.286743,303.392242 543.945557,322.567780 549.672852,345.597046 C556.325317,372.346039 545.710205,398.344360 522.688232,413.143280 C517.191528,416.676636 516.425964,416.254822 515.571838,409.777100 C513.678040,395.414703 512.486206,381.011414 512.649658,366.016296 z"/>
  <path fill="#000000" d="M379.916351,516.824829 C426.329834,518.628357 470.190460,529.652344 512.798645,546.354553 C547.023987,559.770691 578.009338,578.850037 607.613647,600.360291 C609.198914,601.512207 611.009521,602.507080 612.152161,604.999939 C607.000244,609.905029 601.733154,614.935364 596.446472,619.945007 C594.472229,621.815735 592.884338,621.321289 590.898499,619.547363 C568.002930,599.095398 542.451050,582.540161 514.858398,569.267456 C471.537079,548.428589 426.247040,533.755859 378.420105,527.542419 C373.640778,526.921509 368.812408,526.551025 363.995483,526.375854 C356.573486,526.105835 356.031219,525.766174 354.137390,517.526550 C362.585876,516.265564 371.023926,516.853149 379.916351,516.824829 z"/>
  <path fill="#000000" d="M466.896545,589.158936 C438.119476,572.971497 408.086792,560.935669 376.366486,553.136658 C375.262512,552.865295 374.132812,552.410522 373.208435,551.764587 C371.843292,550.810486 366.553680,541.715881 365.514954,538.314819 C442.819458,555.270447 512.267334,585.767883 570.375916,641.993286 C563.816528,646.739929 558.056091,651.091064 552.080688,655.123474 C550.232971,656.370483 549.149353,654.135620 548.120117,652.982361 C531.161316,633.978943 511.946564,617.595154 490.637451,603.688599 C482.972931,598.686646 475.033783,594.105591 466.896545,589.158936 z"/>
  <path fill="#000000" d="M620.490479,538.254639 C633.517639,540.370544 646.126343,542.342773 658.965820,546.398071 C654.066650,554.748169 648.734192,562.129517 643.182922,569.329041 C639.120972,574.596924 634.454163,579.397644 630.374878,584.653381 C628.110535,587.570801 626.397705,587.569641 623.403442,585.576599 C604.119751,572.741333 584.439026,560.563416 563.146790,551.246704 C555.065735,547.710693 546.910217,544.345215 538.818054,540.833984 C537.397400,540.217529 535.470703,540.197327 534.684875,537.310364 C563.337708,532.988831 591.700378,534.353882 620.490479,538.254639 z"/>
  <path fill="#000000" d="M513.905884,677.537292 C511.680023,679.251038 510.437500,677.277283 509.001007,676.445862 C467.320190,652.320435 430.264191,622.529541 398.632080,586.124084 C397.618256,584.957214 395.925873,584.084595 396.317108,581.657776 C400.168976,582.450073 403.353088,584.543091 406.625763,586.288513 C446.547577,607.580444 482.075195,634.288818 509.933563,670.402710 C511.554840,672.504456 513.291748,674.552307 513.905884,677.537292 z"/>
</svg>
