<svg width="734" height="150" viewBox="0 0 734 150" fill="none" xmlns="http://www.w3.org/2000/svg">
<g clip-path="url(#clip0_1_164)">
<path d="M104.001 91.3152C96.7548 103.733 88.7765 115.546 79.8394 126.693C73.725 134.319 67.2831 141.666 60.3234 148.543C58.3368 150.506 56.5982 150.482 54.6055 148.492C38.8669 132.77 25.5098 115.201 14.0011 96.1937C10.4217 90.2823 7.1372 84.2328 4.52443 77.814C-1.77263 62.3438 -1.51575 47.041 5.93608 32.0897C13.6081 16.6967 25.8984 6.39115 42.507 2.11917C65.1964 -3.71685 84.6558 2.6095 100.486 19.7577C108.3 28.223 112.492 38.4769 114.03 49.8666C115.514 60.8654 113.427 71.2787 109.061 81.3375C107.587 84.7345 105.85 88.0032 104.001 91.3152ZM86.449 103.862C93.0994 96.5988 98.5752 88.5454 102.622 79.558C105.297 73.6182 107.339 67.4618 107.806 60.9206C108.446 51.9649 107.017 43.3506 103.034 35.2363C98.4949 25.9877 91.8319 18.6824 82.926 13.4791C72.5298 7.40515 61.3213 5.09881 49.4531 7.10208C33.8874 9.72948 21.9034 17.9687 13.7714 31.4797C6.25183 43.9732 4.5566 57.3628 9.08182 71.2848C13.275 84.1853 20.4254 95.3692 29.7111 105.225C37.3738 113.357 46.064 120.211 55.4444 126.242C56.8285 127.132 57.8507 127.175 59.2583 126.293C69.254 120.031 78.3544 112.699 86.449 103.862Z" fill="black"/>
<path d="M63.4689 56.5729C66.8246 50.3911 72.031 46.7669 78.6039 44.9071C82.7684 43.7287 87.0239 43.4864 91.3179 43.5699C91.9778 43.5827 92.4519 43.7155 92.4063 44.5481C92.0292 51.4371 89.7663 57.5944 84.8855 62.5332C79.8978 67.5803 73.7399 69.5618 66.6753 68.6285C65.6966 68.4991 65.4071 68.1324 65.8595 67.1394C66.8007 65.0736 68.0689 63.2335 69.5041 61.5013C72.8439 57.4704 76.8518 54.1812 81.2228 51.1373C78.2726 51.5348 69.0801 57.4204 65.0279 63.7865C61.1344 69.9034 59.9587 76.6782 59.974 84.0269C58.0492 83.3706 56.326 82.8376 54.6507 82.1821C54.0668 81.9536 54.2344 81.2356 54.2313 80.7122C54.2044 76.1856 53.1105 71.894 51.2059 67.8283C48.6673 62.4095 44.382 58.5886 39.4447 55.4118C37.5606 54.1996 35.5645 53.2277 33.3867 52.5948C38.8231 56.5299 44.0562 60.6621 47.6415 66.476C48.0085 67.0712 48.3661 67.6874 48.4971 68.5314C46.9625 69.2276 45.2962 69.291 43.6753 69.3373C35.2824 69.577 27.9483 64.8284 24.4157 56.9664C22.9012 53.5959 21.986 50.0847 21.8483 46.3807C21.8262 45.7849 21.8575 45.3148 22.6402 45.2681C30.0905 44.8239 37.3071 45.6672 43.6976 49.8438C48.7924 53.1736 51.7031 58.028 52.6194 64.0832C52.9076 65.9874 54.0544 67.5831 55.0065 69.3011C55.1505 67.1711 55.2702 65.0392 55.4468 62.9119C55.5772 61.3421 55.7857 59.7789 55.9513 58.2119C55.9983 57.7674 56.207 57.5423 56.6721 57.5402C57.1261 57.5382 57.3767 57.7208 57.4033 58.1872C57.453 59.0585 57.5485 59.9291 57.5544 60.8005C57.577 64.1996 57.9894 67.5704 58.1582 71.0811C58.7546 70.7839 58.7745 70.2866 58.9446 69.9072C60.2493 66.9964 61.5861 64.1089 61.9151 60.8591C62.0656 59.3723 62.7359 57.9912 63.4689 56.5729Z" fill="black"/>
<path d="M57.1783 41.8589C57.1779 38.7454 57.1779 35.7558 57.1779 32.7662C57.0715 32.7622 56.9651 32.7581 56.8587 32.754C56.4358 35.0639 56.0521 37.376 55.7915 39.7173C55.5249 42.1132 55.3113 44.5053 55.31 46.9154C55.3087 49.3117 55.3097 51.7079 55.3097 54.0646C54.8501 54.2783 54.5675 54.0392 54.3038 53.8682C49.0334 50.4513 46.2574 45.818 46.8853 39.326C47.3285 34.7435 49.406 30.9382 52.0345 27.3614C53.3843 25.5246 54.9507 23.8467 56.4235 22.1006C56.8341 21.6138 57.2037 21.2862 57.8223 21.9469C61.8302 26.2277 64.9899 31.014 66.4195 36.7622C68.0799 43.4389 65.4304 49.9282 59.684 53.622C58.312 54.504 58.1209 54.3987 57.9077 52.7818C57.435 49.1969 57.1375 45.6018 57.1783 41.8589Z" fill="black"/>
<path d="M24.0475 79.5014C35.6325 79.9516 46.5803 82.7032 57.2154 86.8721C65.7582 90.2209 73.4923 94.9832 80.8817 100.352C81.2774 100.64 81.7293 100.888 82.0145 101.51C80.7286 102.735 79.4139 103.99 78.0943 105.241C77.6015 105.708 77.2052 105.584 76.7095 105.141C70.9947 100.036 64.6168 95.9042 57.7296 92.5913C46.9164 87.3898 35.6118 83.7275 23.674 82.1766C22.481 82.0216 21.2759 81.9291 20.0735 81.8854C18.221 81.818 18.0856 81.7332 17.6129 79.6766C19.7217 79.3618 21.8279 79.5085 24.0475 79.5014Z" fill="black"/>
<path d="M45.7581 97.5563C38.5752 93.5159 31.0789 90.5117 23.1614 88.565C22.8859 88.4973 22.6039 88.3838 22.3731 88.2225C22.0324 87.9844 20.7121 85.7143 20.4528 84.8654C39.7484 89.0976 57.0828 96.7099 71.587 110.744C69.9497 111.929 68.5119 113.015 67.0204 114.021C66.5592 114.333 66.2888 113.775 66.0319 113.487C61.7989 108.744 57.0028 104.654 51.6839 101.183C49.7708 99.9345 47.7892 98.791 45.7581 97.5563Z" fill="black"/>
<path d="M84.0958 84.8504C87.3474 85.3785 90.4946 85.8708 93.6994 86.883C92.4765 88.9672 91.1455 90.8097 89.7599 92.6067C88.746 93.9216 87.5812 95.1199 86.563 96.4317C85.9978 97.1599 85.5703 97.1596 84.8229 96.6621C80.0096 93.4584 75.0972 90.4187 69.7826 88.0933C67.7655 87.2107 65.7298 86.3706 63.71 85.4942C63.3554 85.3403 62.8745 85.3353 62.6783 84.6147C69.8302 83.536 76.9097 83.8767 84.0958 84.8504Z" fill="black"/>
<path d="M57.4919 119.616C56.9363 120.044 56.6262 119.551 56.2676 119.344C45.8639 113.322 36.6146 105.886 28.719 96.7988C28.466 96.5075 28.0436 96.2897 28.1412 95.684C29.1027 95.8818 29.8974 96.4042 30.7143 96.8398C40.679 102.154 49.5468 108.821 56.5004 117.835C56.905 118.36 57.3386 118.871 57.4919 119.616Z" fill="black"/>
</g>
<path d="M212.661 52.2834C212.235 47.9865 210.406 44.6484 207.175 42.2692C203.943 39.8899 199.558 38.7003 194.018 38.7003C190.254 38.7003 187.075 39.233 184.483 40.2983C181.891 41.3281 179.902 42.7663 178.517 44.6129C177.168 46.4595 176.493 48.5547 176.493 50.8984C176.422 52.8516 176.83 54.5561 177.718 56.0121C178.641 57.468 179.902 58.7287 181.5 59.794C183.098 60.8239 184.945 61.7294 187.04 62.5107C189.135 63.2564 191.372 63.8956 193.751 64.4283L203.553 66.772C208.311 67.8374 212.679 69.2578 216.656 71.0334C220.634 72.8089 224.078 74.9929 226.99 77.5852C229.902 80.1776 232.157 83.2315 233.755 86.7472C235.388 90.2628 236.223 94.2933 236.259 98.8388C236.223 105.515 234.518 111.303 231.145 116.204C227.807 121.069 222.977 124.851 216.656 127.55C210.371 130.213 202.789 131.545 193.911 131.545C185.104 131.545 177.434 130.195 170.9 127.496C164.401 124.798 159.323 120.803 155.665 115.511C152.043 110.185 150.143 103.597 149.966 95.7493H172.285C172.533 99.407 173.581 102.461 175.428 104.911C177.31 107.326 179.813 109.155 182.938 110.398C186.099 111.605 189.668 112.209 193.645 112.209C197.551 112.209 200.942 111.641 203.819 110.504C206.731 109.368 208.986 107.788 210.584 105.763C212.182 103.739 212.981 101.413 212.981 98.7855C212.981 96.3352 212.253 94.2756 210.797 92.6065C209.376 90.9375 207.281 89.517 204.511 88.3452C201.777 87.1733 198.421 86.108 194.444 85.1491L182.565 82.1662C173.368 79.929 166.106 76.4311 160.779 71.6726C155.452 66.9141 152.807 60.5043 152.842 52.4432C152.807 45.8381 154.565 40.0675 158.116 35.1314C161.702 30.1953 166.621 26.3423 172.871 23.5724C179.121 20.8026 186.223 19.4176 194.178 19.4176C202.274 19.4176 209.341 20.8026 215.378 23.5724C221.45 26.3423 226.173 30.1953 229.547 35.1314C232.92 40.0675 234.661 45.7848 234.767 52.2834H212.661Z" fill="black"/>
<path d="M274.038 82.6989V130H251.346V20.9091H273.399V62.6172H274.358C276.204 57.7876 279.187 54.0057 283.307 51.2713C287.426 48.5014 292.593 47.1165 298.807 47.1165C304.489 47.1165 309.443 48.3594 313.669 50.8452C317.93 53.2955 321.233 56.8288 323.577 61.4453C325.956 66.0263 327.128 71.5128 327.092 77.9048V130H304.4V81.9531C304.436 76.9105 303.157 72.9865 300.565 70.1811C298.008 67.3757 294.422 65.973 289.805 65.973C286.716 65.973 283.981 66.63 281.602 67.9439C279.258 69.2578 277.412 71.1754 276.062 73.6967C274.748 76.1825 274.074 79.1832 274.038 82.6989Z" fill="black"/>
<path d="M368.281 131.545C363.061 131.545 358.409 130.639 354.325 128.828C350.241 126.982 347.01 124.265 344.63 120.678C342.287 117.056 341.115 112.546 341.115 107.148C341.115 102.603 341.949 98.7855 343.618 95.696C345.287 92.6065 347.56 90.1207 350.436 88.2386C353.313 86.3565 356.58 84.9361 360.238 83.9773C363.931 83.0185 367.801 82.3438 371.85 81.9531C376.608 81.456 380.444 80.9943 383.355 80.5682C386.267 80.1065 388.38 79.4318 389.694 78.544C391.008 77.6562 391.665 76.3423 391.665 74.6023V74.2827C391.665 70.9091 390.6 68.299 388.469 66.4524C386.374 64.6058 383.391 63.6825 379.52 63.6825C375.436 63.6825 372.187 64.5881 369.772 66.3991C367.358 68.1747 365.76 70.4119 364.978 73.1108L343.991 71.4062C345.056 66.4347 347.152 62.1378 350.277 58.5156C353.402 54.858 357.432 52.0526 362.368 50.0994C367.34 48.1108 373.093 47.1165 379.627 47.1165C384.172 47.1165 388.522 47.6491 392.677 48.7145C396.868 49.7798 400.578 51.4311 403.81 53.6683C407.077 55.9055 409.652 58.782 411.534 62.2976C413.416 65.7777 414.357 69.9503 414.357 74.8153V130H392.837V118.654H392.198C390.884 121.211 389.126 123.466 386.924 125.419C384.723 127.337 382.077 128.846 378.988 129.947C375.898 131.012 372.329 131.545 368.281 131.545ZM374.779 115.884C378.118 115.884 381.065 115.227 383.622 113.913C386.179 112.564 388.185 110.753 389.641 108.48C391.097 106.207 391.825 103.633 391.825 100.756V92.0739C391.115 92.5355 390.138 92.9616 388.895 93.3523C387.688 93.7074 386.321 94.0447 384.794 94.3643C383.267 94.6484 381.74 94.9148 380.213 95.1634C378.686 95.3764 377.301 95.5717 376.058 95.7493C373.395 96.1399 371.069 96.7614 369.08 97.6136C367.091 98.4659 365.547 99.62 364.446 101.076C363.345 102.496 362.794 104.272 362.794 106.403C362.794 109.492 363.913 111.854 366.15 113.487C368.423 115.085 371.299 115.884 374.779 115.884Z" fill="black"/>
<path d="M431.962 130V48.1818H453.588V62.6172H454.547C456.251 57.8232 459.092 54.0412 463.07 51.2713C467.047 48.5014 471.805 47.1165 477.345 47.1165C482.956 47.1165 487.732 48.5192 491.674 51.3246C495.616 54.0945 498.244 57.8587 499.558 62.6172H500.41C502.079 57.9297 505.097 54.1832 509.465 51.3778C513.869 48.5369 519.071 47.1165 525.072 47.1165C532.707 47.1165 538.904 49.549 543.663 54.4141C548.457 59.2436 550.854 66.0973 550.854 74.9751V130H528.215V79.4496C528.215 74.9041 527.008 71.495 524.593 69.2223C522.178 66.9496 519.16 65.8132 515.538 65.8132C511.418 65.8132 508.205 67.1271 505.896 69.755C503.588 72.3473 502.434 75.7741 502.434 80.0355V130H480.435V78.9702C480.435 74.9574 479.281 71.7614 476.972 69.3821C474.7 67.0028 471.699 65.8132 467.97 65.8132C465.449 65.8132 463.176 66.4524 461.152 67.7308C459.163 68.9737 457.583 70.7315 456.411 73.0043C455.239 75.2415 454.653 77.8693 454.653 80.8878V130H431.962Z" fill="black"/>
<path d="M569.204 130V20.9091H591.896V61.9247H592.588C593.583 59.723 595.021 57.4858 596.903 55.2131C598.821 52.9048 601.306 50.9872 604.36 49.4602C607.45 47.8977 611.285 47.1165 615.866 47.1165C621.832 47.1165 627.336 48.679 632.379 51.804C637.422 54.8935 641.452 59.5632 644.471 65.8132C647.489 72.0277 648.998 79.8224 648.998 89.1974C648.998 98.3239 647.525 106.03 644.577 112.315C641.665 118.565 637.688 123.306 632.645 126.538C627.638 129.734 622.027 131.332 615.813 131.332C611.409 131.332 607.663 130.604 604.574 129.148C601.52 127.692 599.016 125.863 597.063 123.661C595.11 121.424 593.618 119.169 592.588 116.896H591.576V130H569.204ZM591.417 89.0909C591.417 93.956 592.091 98.1996 593.441 101.822C594.79 105.444 596.743 108.267 599.3 110.291C601.857 112.28 604.964 113.274 608.622 113.274C612.315 113.274 615.44 112.262 617.997 110.238C620.554 108.178 622.489 105.337 623.803 101.715C625.152 98.0575 625.827 93.8494 625.827 89.0909C625.827 84.3679 625.17 80.2131 623.856 76.6264C622.542 73.0398 620.607 70.2344 618.05 68.2102C615.493 66.1861 612.35 65.174 608.622 65.174C604.929 65.174 601.804 66.1506 599.247 68.1037C596.725 70.0568 594.79 72.8267 593.441 76.4133C592.091 80 591.417 84.2259 591.417 89.0909Z" fill="black"/>
<path d="M687.47 131.545C682.25 131.545 677.598 130.639 673.514 128.828C669.431 126.982 666.199 124.265 663.82 120.678C661.476 117.056 660.304 112.546 660.304 107.148C660.304 102.603 661.139 98.7855 662.808 95.696C664.477 92.6065 666.749 90.1207 669.626 88.2386C672.502 86.3565 675.769 84.9361 679.427 83.9773C683.12 83.0185 686.991 82.3438 691.039 81.9531C695.798 81.456 699.633 80.9943 702.545 80.5682C705.457 80.1065 707.57 79.4318 708.884 78.544C710.198 77.6562 710.855 76.3423 710.855 74.6023V74.2827C710.855 70.9091 709.789 68.299 707.659 66.4524C705.563 64.6058 702.58 63.6825 698.71 63.6825C694.626 63.6825 691.377 64.5881 688.962 66.3991C686.547 68.1747 684.949 70.4119 684.168 73.1108L663.181 71.4062C664.246 66.4347 666.341 62.1378 669.466 58.5156C672.591 54.858 676.622 52.0526 681.558 50.0994C686.529 48.1108 692.282 47.1165 698.816 47.1165C703.362 47.1165 707.712 47.6491 711.867 48.7145C716.057 49.7798 719.768 51.4311 722.999 53.6683C726.267 55.9055 728.841 58.782 730.723 62.2976C732.605 65.7777 733.546 69.9503 733.546 74.8153V130H712.026V118.654H711.387C710.073 121.211 708.316 123.466 706.114 125.419C703.912 127.337 701.267 128.846 698.177 129.947C695.088 131.012 691.519 131.545 687.47 131.545ZM693.969 115.884C697.307 115.884 700.254 115.227 702.811 113.913C705.368 112.564 707.374 110.753 708.83 108.48C710.286 106.207 711.014 103.633 711.014 100.756V92.0739C710.304 92.5355 709.328 92.9616 708.085 93.3523C706.877 93.7074 705.51 94.0447 703.983 94.3643C702.456 94.6484 700.929 94.9148 699.402 95.1634C697.875 95.3764 696.49 95.5717 695.247 95.7493C692.584 96.1399 690.258 96.7614 688.269 97.6136C686.281 98.4659 684.736 99.62 683.635 101.076C682.534 102.496 681.984 104.272 681.984 106.403C681.984 109.492 683.102 111.854 685.34 113.487C687.612 115.085 690.489 115.884 693.969 115.884Z" fill="black"/>
<defs>
<clipPath id="clip0_1_164">
<rect width="114.56" height="150" fill="white"/>
</clipPath>
</defs>
</svg>
